<svg xmlns="http://www.w3.org/2000/svg" style="background-color:#fff" viewBox="0 0 32 32"><path stroke="#000" d="M0 0h32v32H0zm31 1H1v30c3.74-2.34 7.29-9.66 6-14l-5 6 6-9c-1.28-.78-2.27-1.15-3.26-2.41-6.97-8.87 11.55-13.48 9.72-2.63-.18 1.06-.56 1.79-1.16 2.66L10 15l5 6 4-4c-3.96-3.26-2.03-12.37 3-12.37s6.96 9.11 3 12.37l4 6-6-4c1.17 5.29 2.13 10.97 8 12zM8.1 5.54c-5.94 2.61-1.85 6.62 1.8 5.92 3.67-.69 4.96-5.73-1.8-5.92ZM18 11c5.67 5.5 10.47-.59 3-3zm-7 6c-1.23 4.13 2.27 10.07 4 14h2l4-12c-5.56 3.35-6.41 3.85-10-2Zm-2 6-3 8h6zm13 3-2 5h4z"/></svg>