<svg xmlns="http://www.w3.org/2000/svg" viewBox="0 0 20.999 21.94"><g fill="#fff"><path d="M10.525 7.498c-1.832 0-3.316 1.551-3.316 3.464s1.484 3.464 3.316 3.464 3.315-1.551 3.315-3.464-1.484-3.464-3.315-3.464"/><path d="M18.437 21.94h-8.122C4.601 21.837 0 16.964 0 10.97 0 4.911 4.702 0 10.501 0c5.706 0 10.348 4.753 10.498 10.676l-.018 8.907c-.152 1.329-1.231 2.357-2.544 2.357M4.914 10.967c0 .749-.483 1.381-1.141 1.574.688 3.237 3.452 5.657 6.757 5.657a6.66 6.66 0 0 0 3.321-.885v.836h3.601v-6.882a5 5 0 0 0 .001-.204l-.001-.096c0-3.993-3.099-7.231-6.922-7.231-3.305 0-6.069 2.421-6.757 5.657.658.193 1.141.825 1.141 1.574m-1.598 1.152c.612 0 1.108-.518 1.108-1.157s-.496-1.157-1.108-1.157-1.108.518-1.108 1.157.496 1.157 1.108 1.157"/></g></svg>